<svg width="922" height="266" viewBox="0 0 922 266" fill="none" xmlns="http://www.w3.org/2000/svg">
<path d="M259.063 263.959H247.021C245.761 263.959 244.577 263.317 243.905 262.233L185.749 168.714C184.382 166.53 182.252 166.294 181.396 166.294C180.549 166.294 178.388 166.523 177.044 168.714L118.888 262.233C118.216 263.317 117.032 263.959 115.772 263.959H103.73C100.852 263.959 99.0953 260.79 100.615 258.346L162.146 159.444C166.315 152.725 173.524 148.739 181.419 148.739C189.323 148.739 196.523 152.725 200.693 159.444L262.224 258.346C263.744 260.79 261.995 263.959 259.108 263.959H259.063Z" fill="#EC641D"/>
<path d="M292.18 263.967H280.138C278.878 263.967 277.694 263.325 277.022 262.241L189.3 121.188C187.551 118.386 184.695 116.79 181.396 116.79C178.105 116.79 175.219 118.386 173.493 121.188L85.7702 262.241C85.0982 263.325 83.9146 263.967 82.6547 263.967H70.6127C67.7339 263.967 65.9776 260.798 67.4972 258.354L158.572 111.926C163.513 103.976 172.035 99.2345 181.396 99.2345C186.077 99.2345 190.529 100.418 194.469 102.61C198.379 104.794 201.754 107.962 204.22 111.926L295.288 258.354C296.815 260.798 295.059 263.967 292.18 263.967Z" fill="#EC641D"/>
<path d="M325.275 263.958H313.233C311.973 263.958 310.789 263.317 310.117 262.233L192.85 73.6529C190.331 69.6134 186.161 67.2997 181.396 67.2997C176.631 67.2997 172.47 69.6134 169.942 73.6529L52.6833 262.233C52.0113 263.317 50.8277 263.958 49.5678 263.958H37.5258C34.647 263.958 32.8907 260.789 34.4102 258.346L155.044 64.3598C160.626 55.3798 170.202 49.9201 180.755 49.7139C191.873 49.4848 202.22 55.4027 208.107 64.8485L328.436 258.323C329.956 260.766 328.207 263.935 325.32 263.935L325.275 263.958Z" fill="#EC641D"/>
<path d="M358.392 263.958H346.35C345.09 263.958 343.906 263.317 343.234 262.233L196.401 26.1186C193.11 20.8192 187.65 17.78 181.396 17.78C175.142 17.78 169.69 20.8192 166.391 26.1186L19.5656 262.233C18.8936 263.317 17.7101 263.958 16.4501 263.958H4.40808C1.52929 263.958 -0.227 260.789 1.29257 258.346L151.501 16.8255C157.984 6.43285 169.156 0.201843 181.427 0.201843C193.706 0.201843 204.869 6.40231 211.352 16.8255L361.553 258.346C363.073 260.789 361.324 263.958 358.445 263.958H358.392Z" fill="#EC641D"/>
<path d="M854.956 263.646V167.707H870.579V202.726L869.8 222.511L882.69 207.544L897.924 191.791H918.098L893.105 216.784L922 263.646H903.91L882.171 227.848L870.587 239.432V263.646H854.956ZM831.651 215.486C831.651 208.193 828.398 203.383 822.022 203.383C815.775 203.383 810.178 208.85 805.1 219.266V263.646H789.606V191.791H804.443L804.833 202.207C810.17 194.525 816.806 190.233 825.007 190.233C838.286 190.233 847.266 199.213 847.266 215.486V224.466H831.643V215.486H831.651ZM723.257 227.719C723.257 243.082 731.198 252.452 743.958 252.452C756.718 252.452 764.522 243.082 764.522 227.719C764.522 212.355 756.71 202.986 743.958 202.986C731.198 202.986 723.257 212.355 723.257 227.719ZM743.958 265.212C721.44 265.212 707.771 251.024 707.771 227.719C707.771 204.413 721.44 190.226 743.958 190.226C766.477 190.226 780.145 204.413 780.145 227.719C780.145 251.024 766.477 265.212 743.958 265.212ZM622.896 263.646L602.203 191.791H617.696L628.761 230.582L632.533 250.237L636.573 231.491L647.897 191.791H662.604L674.188 231.491L678.227 250.497L682.129 230.582L693.194 191.791H707.901L687.329 263.646H669.499L658.435 225.504L655.052 208.713L651.669 225.504L640.597 263.646H622.896ZM591.169 263.646C576.851 263.646 569.169 254.017 569.169 240.349V204.421H556.15V191.791H569.169V178.901L584.793 171.09V191.783H600.149V204.413H584.793V240.341C584.793 247.633 587.526 251.016 597.026 251.016H607.701V263.646H591.169ZM502.988 216.524H540.87C540.221 208.193 532.929 202.726 522.903 202.726C512.617 202.726 505.851 207.544 502.988 216.524ZM522.253 265.212C499.605 265.212 485.807 251.024 485.807 227.589C485.807 204.421 499.865 190.233 522.903 190.233C546.07 190.233 558.311 204.551 556.745 227.726H501.293V228.246C501.293 242.433 508.715 252.459 522.253 252.459C532.539 252.459 539.824 247.252 541.389 239.051H557.013C554.791 255.315 541.649 265.212 522.253 265.212ZM400.871 263.646V172.785H419.617L461.272 242.685L458.928 209.102V172.785H475.33V263.646H456.584L414.799 193.616L417.273 227.329V263.646H400.871ZM675.348 106.619C675.348 97.2493 669.751 91.1252 661.55 91.1252C652.83 91.1252 645.927 96.4628 640.719 108.306V151.396H625.225V55.4572H640.719V90.0867C646.706 81.8855 655.166 77.9835 664.414 77.9835C680.686 77.9835 690.842 89.0482 690.842 105.71V151.396H675.348V106.619ZM583.265 152.962C560.877 152.962 547.078 138.514 547.078 115.469C547.078 92.4309 561.006 77.9759 583.525 77.9759C602.531 77.9759 615.283 88.3915 616.589 105.053H601.096C599.66 96.2031 592.895 90.8655 583.525 90.8655C570.635 90.8655 562.572 100.365 562.572 115.469C562.572 130.703 570.513 140.332 583.265 140.332C592.245 140.332 599.408 134.994 601.493 126.404H616.986C614.772 142.676 601.752 152.962 583.265 152.962ZM527.049 103.236C527.049 95.9435 523.796 91.1328 517.42 91.1328C511.174 91.1328 505.576 96.6002 500.498 107.016V151.396H485.005V79.5413H499.842L500.231 89.9568C505.569 82.275 512.204 77.9835 520.406 77.9835C533.685 77.9835 542.665 86.9635 542.665 103.236V112.216H527.041V103.236H527.049ZM421.695 114.82H449.161L440.96 92.1713L435.493 73.9441L429.766 92.1713L421.695 114.82ZM424.818 60.5352H446.428L479.621 151.396H462.311L454.109 128.488H416.754L408.553 151.396H391.761L424.818 60.5352Z" fill="#EC641D"/>
</svg>
