<svg width="922" height="265" viewBox="0 0 922 265" fill="none" xmlns="http://www.w3.org/2000/svg">
<path d="M258.329 263.757H246.287C245.027 263.757 243.844 263.115 243.172 262.031L185.016 168.512C183.649 166.329 181.518 166.092 180.663 166.092C179.816 166.092 177.655 166.321 176.311 168.512L118.154 262.031C117.483 263.115 116.299 263.757 115.039 263.757H102.997C100.118 263.757 98.3619 260.588 99.8814 258.144L161.413 159.242C165.582 152.523 172.79 148.537 180.686 148.537C188.589 148.537 195.79 152.523 199.959 159.242L261.491 258.144C263.01 260.588 261.261 263.757 258.375 263.757H258.329Z" fill="#736FB9"/>
<path d="M291.446 263.765H279.404C278.144 263.765 276.961 263.124 276.289 262.039L188.566 120.986C186.817 118.184 183.961 116.588 180.662 116.588C177.371 116.588 174.485 118.184 172.759 120.986L85.0363 262.039C84.3643 263.124 83.1808 263.765 81.9208 263.765H69.8788C67 263.765 65.2437 260.596 66.7633 258.153L157.838 111.724C162.779 103.775 171.301 99.0327 180.662 99.0327C185.343 99.0327 189.795 100.216 193.735 102.408C197.645 104.592 201.02 107.761 203.487 111.724L294.554 258.153C296.081 260.596 294.325 263.765 291.446 263.765Z" fill="#736FB9"/>
<path d="M324.541 263.756H312.499C311.239 263.756 310.055 263.115 309.383 262.031L192.117 73.451C189.597 69.4116 185.427 67.0978 180.662 67.0978C175.898 67.0978 171.736 69.4116 169.208 73.451L51.9494 262.031C51.2774 263.115 50.0938 263.756 48.8339 263.756H36.7919C33.9131 263.756 32.1568 260.587 33.6764 258.144L154.311 64.158C159.892 55.178 169.468 49.7182 180.021 49.512C191.139 49.283 201.486 55.2009 207.373 64.6467L327.702 258.121C329.222 260.565 327.473 263.734 324.587 263.734L324.541 263.756Z" fill="#736FB9"/>
<path d="M357.659 263.756H345.617C344.357 263.756 343.173 263.115 342.501 262.031L195.668 25.9167C192.377 20.6173 186.917 17.5782 180.663 17.5782C174.409 17.5782 168.957 20.6173 165.658 25.9167L18.8322 262.031C18.1602 263.115 16.9767 263.756 15.7167 263.756H3.67468C0.795891 263.756 -0.960399 260.588 0.559174 258.144L150.768 16.6237C157.251 6.23101 168.422 0 180.693 0C192.972 0 204.136 6.20047 210.619 16.6237L360.82 258.144C362.339 260.588 360.591 263.756 357.712 263.756H357.659Z" fill="#736FB9"/>
<path d="M854.222 263.444V167.505H869.845V202.524L869.066 222.309L881.956 207.342L897.19 191.589H917.364L892.371 216.582L921.266 263.444H903.177L881.437 227.647L869.853 239.23V263.444H854.222ZM830.917 215.284C830.917 207.991 827.664 203.181 821.288 203.181C815.041 203.181 809.444 208.648 804.366 219.064V263.444H788.873V191.589H803.709L804.099 202.005C809.436 194.323 816.072 190.031 824.273 190.031C837.552 190.031 846.532 199.011 846.532 215.284V224.264H830.909V215.284H830.917ZM722.523 227.517C722.523 242.881 730.465 252.25 743.224 252.25C755.984 252.25 763.788 242.881 763.788 227.517C763.788 212.153 755.977 202.784 743.224 202.784C730.465 202.784 722.523 212.153 722.523 227.517ZM743.224 265.01C720.706 265.01 707.037 250.822 707.037 227.517C707.037 204.212 720.706 190.024 743.224 190.024C765.743 190.024 779.412 204.212 779.412 227.517C779.412 250.822 765.743 265.01 743.224 265.01ZM622.163 263.444L601.469 191.589H616.962L628.027 230.38L631.799 250.035L635.839 231.289L647.163 191.589H661.87L673.454 231.289L677.493 250.295L681.395 230.38L692.46 191.589H707.167L686.596 263.444H668.765L657.701 225.302L654.318 208.511L650.935 225.302L639.863 263.444H622.163ZM590.435 263.444C576.117 263.444 568.435 253.815 568.435 240.147V204.219H555.416V191.589H568.435V178.7L584.059 170.888V191.582H599.415V204.212H584.059V240.139C584.059 247.432 586.792 250.814 596.292 250.814H606.967V263.444H590.435ZM502.254 216.322H540.136C539.487 207.991 532.195 202.524 522.169 202.524C511.883 202.524 505.117 207.342 502.254 216.322ZM521.52 265.01C498.871 265.01 485.073 250.822 485.073 227.387C485.073 204.219 499.131 190.031 522.169 190.031C545.336 190.031 557.577 204.349 556.012 227.524H500.559V228.044C500.559 242.231 507.981 252.258 521.52 252.258C531.805 252.258 539.09 247.05 540.656 238.849H556.279C554.057 255.113 540.915 265.01 521.52 265.01ZM400.137 263.444V172.583H418.884L460.538 242.483L458.194 208.9V172.583H474.596V263.444H455.85L414.065 193.414L416.539 227.127V263.444H400.137ZM674.615 106.417C674.615 97.0474 669.017 90.9233 660.816 90.9233C652.096 90.9233 645.193 96.2609 639.985 108.104V151.195H624.492V55.2554H639.985V89.8848C645.972 81.6837 654.433 77.7817 663.68 77.7817C679.952 77.7817 690.108 88.8463 690.108 105.508V151.195H674.615V106.417ZM582.532 152.76C560.143 152.76 546.344 138.313 546.344 115.267C546.344 92.2291 560.273 77.7741 582.791 77.7741C601.797 77.7741 614.549 88.1896 615.855 104.851H600.362C598.926 96.0013 592.161 90.6637 582.791 90.6637C569.902 90.6637 561.838 100.163 561.838 115.267C561.838 130.501 569.779 140.13 582.532 140.13C591.512 140.13 598.674 134.792 600.759 126.202H616.252C614.038 142.474 601.018 152.76 582.532 152.76ZM526.315 103.034C526.315 95.7416 523.062 90.931 516.686 90.931C510.44 90.931 504.842 96.3984 499.765 106.814V151.195H484.271V79.3394H499.108L499.497 89.755C504.835 82.0731 511.471 77.7817 519.672 77.7817C532.951 77.7817 541.931 86.7617 541.931 103.034V112.014H526.307V103.034H526.315ZM420.961 114.618H448.427L440.226 91.9695L434.759 73.7422L429.032 91.9695L420.961 114.618ZM424.084 60.3333H445.694L478.888 151.195H461.577L453.376 128.286H416.02L407.819 151.195H391.027L424.084 60.3333Z" fill="#736FB9"/>
</svg>
