<svg width="706" height="840" viewBox="0 0 706 840" fill="none" xmlns="http://www.w3.org/2000/svg">
<g clip-path="url(#clip0_2371_2963)">
<path d="M967.712 855H929.349C925.335 855 921.565 852.957 919.424 849.504L734.153 551.695C729.799 544.74 723.012 543.987 720.287 543.987C717.587 543.987 710.703 544.716 706.421 551.695L521.151 849.504C519.01 852.957 515.24 855 511.226 855H472.863C463.692 855 458.097 844.908 462.938 837.127L658.96 522.174C672.243 500.775 695.207 488.082 720.36 488.082C745.538 488.082 768.478 500.775 781.76 522.174L977.783 837.127C982.624 844.908 977.053 855 967.858 855H967.712Z" fill="#736FB9" fill-opacity="0.7"/>
<path d="M1072.87 854.998H1034.54C1030.53 854.998 1026.76 852.955 1024.62 849.502L745.332 400.301C739.765 391.376 730.672 386.294 720.17 386.294C709.692 386.294 700.502 391.376 695.008 400.301L415.722 849.502C413.583 852.955 409.815 854.998 405.803 854.998H367.465C358.3 854.998 352.708 844.906 357.546 837.124L647.504 370.803C663.233 345.488 690.364 330.387 720.17 330.387C735.073 330.387 749.246 334.156 761.79 341.135C774.238 348.09 784.983 358.182 792.836 370.803L1082.77 837.124C1087.63 844.906 1082.04 854.998 1072.87 854.998Z" fill="#736FB9" fill-opacity="0.7"/>
<path d="M1178.49 854.999H1140.14C1136.13 854.999 1132.36 852.957 1130.22 849.504L756.758 248.952C748.733 236.088 735.455 228.72 720.28 228.72C705.105 228.72 691.851 236.088 683.802 248.952L310.362 849.504C308.222 852.957 304.453 854.999 300.44 854.999H262.09C252.921 854.999 247.328 844.908 252.168 837.126L636.356 219.357C654.133 190.76 684.628 173.372 718.237 172.716C753.645 171.986 786.597 190.833 805.347 220.914L1188.56 837.053C1193.4 844.835 1187.83 854.926 1178.64 854.926L1178.49 854.999Z" fill="#736FB9" fill-opacity="0.7"/>
<path d="M1283.88 854.997H1245.54C1241.53 854.997 1237.76 852.955 1235.62 849.501L768.06 97.5382C757.58 80.6609 740.194 70.982 720.28 70.982C700.366 70.982 683.005 80.6609 672.501 97.5382L204.967 849.501C202.827 852.955 199.058 854.997 195.046 854.997H156.701C147.534 854.997 141.942 844.905 146.781 837.123L625.086 67.9421C645.73 34.8442 681.303 15 720.377 15C759.476 15 795.025 34.7469 815.669 67.9421L1293.95 837.123C1298.79 844.905 1293.22 854.997 1284.05 854.997H1283.88Z" fill="#736FB9" fill-opacity="0.7"/>
</g>
<defs>
<clipPath id="clip0_2371_2963">
<rect width="706" height="840" fill="white"/>
</clipPath>
</defs>
</svg>
